<svg width="28" height="141" viewBox="0 0 28 141" fill="none" xmlns="http://www.w3.org/2000/svg">
<path d="M2.42416 1.35595C-0.375843 2.95595 -0.775843 11.756 1.35749 24.556C2.15749 28.9559 3.62416 44.2893 4.69082 58.5559C7.35749 91.0893 8.82416 101.756 12.1575 108.823C14.9575 114.556 17.8908 116.823 19.4908 114.423C20.6908 112.289 22.4242 91.4893 24.0242 57.8893C24.6908 41.7559 25.8908 23.6226 26.6908 17.6226C28.5575 3.08928 27.8908 1.88928 17.2242 0.689285C6.55749 -0.377382 5.22416 -0.244048 2.42416 1.35595ZM23.2242 6.68928C24.0242 7.35595 23.8908 11.0893 22.9575 16.156C22.1575 20.8226 21.0908 28.5559 20.5575 33.4893C20.0242 38.4226 18.8242 43.2226 17.8908 44.0226C15.4908 46.0226 9.75749 44.5559 8.15749 41.4893C6.29082 38.0226 2.55749 10.2893 3.49082 6.82262C4.29082 3.88928 4.69082 3.75595 13.2242 4.55595C18.0242 5.08928 22.5575 6.02262 23.2242 6.68928ZM16.0242 47.3559L20.0242 46.5559L19.8908 62.9559C19.8908 71.8893 19.0908 86.4226 18.1575 95.2226L16.5575 111.223L14.2908 104.023C12.1575 97.2226 10.5575 83.4893 8.55749 57.2226C7.75749 45.6226 7.89082 44.8226 9.89082 46.4226C11.2242 47.4893 13.4908 47.8893 16.0242 47.3559Z" fill="black"/>
<path d="M12.9077 137.675C12.294 137.675 11.7486 137.57 11.2713 137.36C10.7969 137.15 10.4219 136.857 10.1463 136.482C9.87074 136.107 9.72443 135.674 9.70739 135.182H11.3097C11.3239 135.418 11.402 135.624 11.544 135.8C11.6861 135.973 11.875 136.108 12.1108 136.205C12.3466 136.302 12.6108 136.35 12.9034 136.35C13.2159 136.35 13.4929 136.296 13.7344 136.188C13.9759 136.077 14.1648 135.924 14.3011 135.728C14.4375 135.532 14.5043 135.306 14.5014 135.05C14.5043 134.786 14.4361 134.553 14.2969 134.351C14.1577 134.15 13.956 133.992 13.6918 133.878C13.4304 133.765 13.1151 133.708 12.7457 133.708H11.9744V132.489H12.7457C13.0497 132.489 13.3153 132.436 13.5426 132.331C13.7727 132.226 13.9531 132.079 14.0838 131.888C14.2145 131.695 14.2784 131.472 14.2756 131.219C14.2784 130.972 14.223 130.757 14.1094 130.576C13.9986 130.391 13.8409 130.248 13.6364 130.145C13.4347 130.043 13.1974 129.992 12.9247 129.992C12.6577 129.992 12.4105 130.04 12.1832 130.137C11.956 130.233 11.7727 130.371 11.6335 130.55C11.4943 130.726 11.4205 130.936 11.4119 131.181H9.89062C9.90199 130.692 10.0426 130.263 10.3125 129.894C10.5852 129.522 10.9489 129.232 11.4034 129.025C11.858 128.814 12.3679 128.709 12.9332 128.709C13.5156 128.709 14.0213 128.819 14.4503 129.037C14.8821 129.253 15.2159 129.544 15.4517 129.911C15.6875 130.277 15.8054 130.682 15.8054 131.125C15.8082 131.617 15.6634 132.029 15.3707 132.361C15.081 132.694 14.7003 132.911 14.2287 133.013V133.081C14.8423 133.167 15.3125 133.394 15.6392 133.763C15.9688 134.13 16.1321 134.586 16.1293 135.131C16.1293 135.62 15.9901 136.057 15.7116 136.444C15.4361 136.827 15.0554 137.128 14.5696 137.347C14.0866 137.566 13.5327 137.675 12.9077 137.675ZM21.1417 128.829V137.556H19.5607V130.367H19.5096L17.4684 131.671V130.222L19.6374 128.829H21.1417Z" fill="black"/>
</svg>
